# xmcd CD database file
#
# Track frame offsets:
#	150
#	16998
#	32853
#	49292
#	67042
#	84929
#	97230
#	109913
#	128646
#	147790
#	162456
#	177784
#
# Disc length: 2583 seconds
#
# Revision: 0
# Processed by: cddbd v1.5.2PL0 Copyright (c) Steve Scherf et al.
# Submitted via: CDex 1.51
#
DISCID=a40a150c
DTITLE=Holy, Steve - Blue Mood
DYEAR=1900
DGENRE=Country
TTITLE0=Blue Moon
TTITLE1=One Beat at a Time
TTITLE2=Cold Kisses
TTITLE3=Just a Kiss
TTITLE4=The Hunger
TTITLE5=Tear One
TTITLE6=She's So Sexy
TTITLE7=You're Gonna Miss My Love
TTITLE8=Someone's Out to Get Me
TTITLE9=If That's What You Want
TTITLE10=Don't Make Me Beg
TTITLE11=Good Morning Beautiful
EXTD=
EXTT0=
EXTT1=
EXTT2=
EXTT3=
EXTT4=
EXTT5=
EXTT6=
EXTT7=
EXTT8=
EXTT9=
EXTT10=
EXTT11=
PLAYORDER=
